<?xml version="1.0" encoding="UTF-8" standalone="no"?>
<!-- Created with Inkscape (http://www.inkscape.org/) -->

<svg
   xmlns:osb="http://www.openswatchbook.org/uri/2009/osb"
   xmlns:dc="http://purl.org/dc/elements/1.1/"
   xmlns:cc="http://creativecommons.org/ns#"
   xmlns:rdf="http://www.w3.org/1999/02/22-rdf-syntax-ns#"
   xmlns:svg="http://www.w3.org/2000/svg"
   xmlns="http://www.w3.org/2000/svg"
   xmlns:sodipodi="http://sodipodi.sourceforge.net/DTD/sodipodi-0.dtd"
   xmlns:inkscape="http://www.inkscape.org/namespaces/inkscape"
   width="744.09448819"
   height="1052.3622047"
   id="svg2"
   version="1.1"
   inkscape:version="0.48.3.1 r9886"
   sodipodi:docname="traffic_light_green.svg">
  <defs
     id="defs4">
    <linearGradient
       id="linearGradient3778"
       osb:paint="solid">
      <stop
         style="stop-color:#000000;stop-opacity:1;"
         offset="0"
         id="stop3780" />
    </linearGradient>
  </defs>
  <sodipodi:namedview
     id="base"
     pagecolor="#ffffff"
     bordercolor="#666666"
     borderopacity="1.0"
     inkscape:pageopacity="0.0"
     inkscape:pageshadow="2"
     inkscape:zoom="0.35"
     inkscape:cx="-265.91933"
     inkscape:cy="405.3569"
     inkscape:document-units="px"
     inkscape:current-layer="layer1"
     showgrid="false"
     inkscape:window-width="1366"
     inkscape:window-height="744"
     inkscape:window-x="0"
     inkscape:window-y="24"
     inkscape:window-maximized="1"
     inkscape:object-nodes="true" />
  <metadata
     id="metadata7">
    <rdf:RDF>
      <cc:Work
         rdf:about="">
        <dc:format>image/svg+xml</dc:format>
        <dc:type
           rdf:resource="http://purl.org/dc/dcmitype/StillImage" />
        <dc:title></dc:title>
      </cc:Work>
    </rdf:RDF>
  </metadata>
  <g
     inkscape:label="Layer 1"
     inkscape:groupmode="layer"
     id="layer1">
    <g
       id="g2991"
       transform="matrix(2.4404842,0,0,2.4294579,-446.9754,-121.9156)">
      <path
         sodipodi:nodetypes="cccccc"
         inkscape:connector-curvature="0"
         id="rect3005"
         d="m 243.58308,92.662896 87.84549,-34.285714 96.41695,34.285714 0,378.973354 -184.26244,0 z"
         style="opacity:0.80246911;fill:#000000;fill-opacity:1;stroke:#000000;stroke-width:1.66426134;stroke-miterlimit:4;stroke-opacity:1" />
      <path
         transform="translate(0,121.42857)"
         sodipodi:type="arc"
         style="fill:#00ff00;fill-opacity:1;stroke:#000000;stroke-width:1.64273429;stroke-miterlimit:4;stroke-opacity:1;stroke-dasharray:none"
         id="path3009"
         sodipodi:cx="333.92856"
         sodipodi:cy="281.29074"
         sodipodi:rx="53.92857"
         sodipodi:ry="55.357143"
         d="m 387.85713,281.29074 c 0,30.57291 -24.14464,55.35714 -53.92857,55.35714 -29.78393,0 -53.92857,-24.78423 -53.92857,-55.35714 0,-30.57291 24.14464,-55.35714 53.92857,-55.35714 29.78393,0 53.92857,24.78423 53.92857,55.35714 z" />
      <path
         inkscape:connector-curvature="0"
         id="path3001"
         d="m 322.01991,337.64263 c -10.61953,-2.30955 -19.06811,-7.04717 -27.39501,-15.36203 -32.44808,-32.40116 -15.91085,-88.53147 28.74947,-97.5808 6.87101,-1.39225 18.38218,-1.02645 25.17031,0.79986 17.60548,4.73663 32.55156,19.04094 38.50582,36.85239 10.79238,32.28412 -7.48773,66.63075 -39.87008,74.9122 -6.64793,1.70014 -18.27862,1.87505 -25.16051,0.37838 l 0,0 z"
         style="fill:#474747;fill-opacity:1;stroke:#000000;stroke-width:1.17338169;stroke-miterlimit:4;stroke-opacity:1;stroke-dasharray:none" />
      <path
         inkscape:connector-curvature="0"
         id="path3003"
         d="m 318.18754,217.31845 c -18.25854,-4.66328 -31.90654,-17.1315 -38.53213,-35.20127 -3.04106,-8.29381 -3.84982,-22.71382 -1.81362,-32.33658 1.89825,-8.97084 9.45084,-21.78175 16.8575,-28.59418 7.48435,-6.8839 19.22184,-12.16184 29.69109,-13.35108 25.69133,-2.91836 48.42662,11.7368 57.88784,37.31449 1.8807,5.08432 1.97723,5.95482 1.97895,17.84506 0.002,14.19071 -0.35829,15.81106 -5.95669,26.78571 -6.05495,11.86968 -17.98465,22.01009 -31.18437,26.50717 -7.73621,2.63568 -20.8193,3.10181 -28.92857,1.03068 z"
         style="fill:#474747;fill-opacity:1;stroke:#000000;stroke-width:1.17338169;stroke-miterlimit:4;stroke-opacity:1;stroke-dasharray:none" />
    </g>
  </g>
</svg>
